# xmcd CD database file
#
# Track frame offsets:
#	150
#	23949
#	41315
#	53219
#	82540
#	94855
#	119489
#	130537
#	142000
#	158574
#	171233
#	185565
#
# Disc length: 2673 seconds
#
# Revision: 0
# Processed by: cddbd v1.5.2PL0 Copyright (c) Steve Scherf et al.
# Submitted via: CDex 1.51
#
DISCID=930a6f0c
DTITLE=Sax Collective - Sax Collective
DYEAR=2006
DGENRE=Jazz
TTITLE0=Carmen
TTITLE1=All The Things You Are
TTITLE2=Misty
TTITLE3=Tango
TTITLE4=Polovtsian Dance From Prince Igor
TTITLE5=Flavours
TTITLE6=Love Is Here To Stay
TTITLE7=Celtic Suite - Midnight In Kinsale
TTITLE8=Celtic Suite - Love Song
TTITLE9=Celtic Suite - Ceilidh
TTITLE10=Someone To Watch Over Me
TTITLE11=Hodown
EXTD=YEAR: 2006
EXTT0=
EXTT1=
EXTT2=
EXTT3=
EXTT4=
EXTT5=
EXTT6=
EXTT7=
EXTT8=
EXTT9=
EXTT10=
EXTT11=
PLAYORDER=
